<svg xmlns="http://www.w3.org/2000/svg" width="17.769" height="22" viewBox="0 0 17.769 22">
  <path id="PLC状态-icon" d="M151.255,38.264V36.571H133.486v1.692h8.038v5.077h-2.962v-.846a.849.849,0,0,0-.846-.846h-3.385a.849.849,0,0,0-.846.846v3.385a.849.849,0,0,0,.846.846h3.385a.849.849,0,0,0,.846-.846v-.846h2.962V55.187h-2.962v-.846a.849.849,0,0,0-.846-.846h-3.385a.849.849,0,0,0-.846.846v3.385a.849.849,0,0,0,.846.846h3.385a.849.849,0,0,0,.846-.846v-.846h4.654V50.956h2.962V51.8a.849.849,0,0,0,.846.846h3.385a.849.849,0,0,0,.846-.846V48.418a.849.849,0,0,0-.846-.846h-3.385a.849.849,0,0,0-.846.846v.846h-2.962v-11h8.038Z" transform="translate(-133.486 -36.571)" fill="#f1f1f1"/>
</svg>
