<svg xmlns="http://www.w3.org/2000/svg" xmlns:xlink="http://www.w3.org/1999/xlink" width="334" height="332" viewBox="0 0 334 332">
  <defs>
    <filter id="联合_15" x="0" y="272" width="60" height="60" filterUnits="userSpaceOnUse">
      <feOffset input="SourceAlpha"/>
      <feGaussianBlur stdDeviation="6" result="blur"/>
      <feFlood flood-color="#00a2ff" flood-opacity="0.298"/>
      <feComposite operator="in" in2="blur"/>
      <feComposite in="SourceGraphic"/>
    </filter>
    <filter id="减去_2" x="282" y="280" width="52" height="52" filterUnits="userSpaceOnUse">
      <feOffset input="SourceAlpha"/>
      <feGaussianBlur stdDeviation="6" result="blur-2"/>
      <feFlood flood-color="#00a2ff" flood-opacity="0.302"/>
      <feComposite operator="in" in2="blur-2"/>
      <feComposite in="SourceGraphic"/>
    </filter>
    <linearGradient id="linear-gradient" y1="0.5" x2="1" y2="0.5" gradientUnits="objectBoundingBox">
      <stop offset="0" stop-color="#144591"/>
      <stop offset="1" stop-color="#195ca5"/>
    </linearGradient>
  </defs>
  <g id="作业状态-面板-背景" transform="translate(158.574 -130.629)">
    <g id="减去_138" data-name="减去 138" transform="translate(-140.574 130.629)" fill="none">
      <path d="M274,314H0V0H292.413L298,14.163V290l-24,24Z" stroke="none"/>
      <path d="M 273.5853576660156 313.0001525878906 L 296.9999084472656 289.5855712890625 L 296.9989929199219 14.35333251953125 L 291.7326049804688 1.000020503997803 L 0.9999958872795105 1.000020503997803 L 0.9999958872795105 313.0001525878906 L 273.5853576660156 313.0001525878906 M 273.9993286132812 314.00048828125 L 273.9996337890625 314.0001525878906 L -4.109700512344716e-06 314.0001525878906 L -4.109700512344716e-06 2.054850301647093e-05 L 292.4131774902344 2.054850301647093e-05 L 297.9989929199219 14.16331195831299 L 297.9999084472656 289.9998168945312 L 273.9993286132812 314.00048828125 Z" stroke="none" fill="#73f7ff"/>
    </g>
    <g transform="matrix(1, 0, 0, 1, -158.57, 130.63)" filter="url(#联合_15)">
      <path id="联合_15-2" data-name="联合 15" d="M0,24V0H4V20H24v4Z" transform="translate(18 290)" fill="#20c1ff"/>
    </g>
    <g transform="matrix(1, 0, 0, 1, -158.57, 130.63)" filter="url(#减去_2)">
      <path id="减去_2-2" data-name="减去 2" d="M16,16H0L16,0V16Z" transform="translate(300 298)" fill="#20c1ff"/>
    </g>
    <g id="组_704" data-name="组 704" transform="translate(-140.575 130.629)">
      <g id="减去_137" data-name="减去 137" transform="translate(0.001)" fill="url(#linear-gradient)">
        <path d="M 297.5 43.5 L 0.5 43.5 L 0.5 0.5 L 297.5 0.5 L 297.5 43.5 Z" stroke="none"/>
        <path d="M 1 1 L 1 43 L 297 43 L 297 1 L 1 1 M 0 0 L 298 0 L 298 44 L 0 44 L 0 0 Z" stroke="none" fill="#20c1ff"/>
      </g>
    </g>
  </g>
</svg>
