<svg xmlns="http://www.w3.org/2000/svg" width="19.273" height="22" viewBox="0 0 19.273 22">
  <path id="控制柜温度-icon" d="M-14110.275-424.843a5.97,5.97,0,0,1-1.814-4.2,5.885,5.885,0,0,1,3.58-5.37v-8.355a2.483,2.483,0,0,1,2.482-2.389,2.484,2.484,0,0,1,2.482,2.389v8.355a5.886,5.886,0,0,1,3.6,5.37,5.968,5.968,0,0,1-1.814,4.2,5.972,5.972,0,0,1-4.258,1.683h-.105A5.973,5.973,0,0,1-14110.275-424.843Zm3.68-18.5a.807.807,0,0,0-.248.573v9.534a4.3,4.3,0,0,0-3.568,4.594,4.364,4.364,0,0,0,4.4,3.877,4.366,4.366,0,0,0,4.4-3.866,4.3,4.3,0,0,0-3.566-4.6v-9.534a.817.817,0,0,0-.248-.567.821.821,0,0,0-.582-.235h-.014A.816.816,0,0,0-14106.6-443.345Zm-2.465,14.608a2.875,2.875,0,0,1,2.693-3.041.709.709,0,0,1,.7.224.643.643,0,0,1,.086.705.687.687,0,0,1-.619.373,1.561,1.561,0,0,0-1.414,1.571,1.6,1.6,0,0,0,1.49,1.508,1.606,1.606,0,0,0,1.686-1.287.675.675,0,0,1,.656-.653.68.68,0,0,1,.709.616h.018a2.933,2.933,0,0,1-2.961,2.68c-.062,0-.119.005-.178.005A2.876,2.876,0,0,1-14109.061-428.737Zm-9.639-6.031a.771.771,0,0,1-.244-.56.824.824,0,0,1,.258-.571.815.815,0,0,1,.586-.22h6.346a.85.85,0,0,1,.574.231.787.787,0,0,1,.242.56.769.769,0,0,1-.242.56.849.849,0,0,1-.574.231h-6.363A.844.844,0,0,1-14118.7-434.768Zm1.381-3.164a.77.77,0,0,1-.242-.56.8.8,0,0,1,.248-.568.808.808,0,0,1,.582-.223h4.977a.848.848,0,0,1,.586.216.777.777,0,0,1,.242.56.787.787,0,0,1-.242.56.852.852,0,0,1-.586.231h-5A.845.845,0,0,1-14117.318-437.932Zm5.564-2.937h-6.635a.851.851,0,0,1-.588-.228.785.785,0,0,1-.24-.563.812.812,0,0,1,.828-.791h6.635a.851.851,0,0,1,.586.235.777.777,0,0,1,.24.56.776.776,0,0,1-.24.56.844.844,0,0,1-.576.228Z" transform="translate(14119.217 445.161)" fill="#f1f1f1"/>
</svg>
