<svg xmlns="http://www.w3.org/2000/svg" width="22" height="18.228" viewBox="0 0 22 18.228">
  <path id="操作模式-icon" d="M16.185,19.838a2.925,2.925,0,0,1,1.569-2.6V7.865a1.382,1.382,0,1,1,2.765,0v9.456a2.906,2.906,0,1,1-4.332,2.516ZM9.456,20.2V9.973a2.877,2.877,0,1,1,2.766-.083V20.2a1.383,1.383,0,0,1-2.766,0Zm-7.951,0V16.566a2.943,2.943,0,0,1,0-5.136V7.866a1.383,1.383,0,1,1,2.766,0v3.578a2.943,2.943,0,0,1,0,5.108V20.2a1.383,1.383,0,1,1-2.766,0Z" transform="translate(0 -4.533)" fill="#f1f1f1"/>
</svg>
