<svg xmlns="http://www.w3.org/2000/svg" width="21.999" height="18.347" viewBox="0 0 21.999 18.347">
  <path id="防尘房急停按钮-icon" d="M-13704.042-478.853a12.177,12.177,0,0,1-3.7-1.528,7.287,7.287,0,0,0-3.607-1.247,8.1,8.1,0,0,0-5.421,2.287.55.55,0,0,1-.775-.059.55.55,0,0,1,.059-.776,9.173,9.173,0,0,1,6.165-2.552,8.241,8.241,0,0,1,4.12,1.389,11.127,11.127,0,0,0,3.383,1.409,11.431,11.431,0,0,0,7.348-1.275.551.551,0,0,1,.736.252.55.55,0,0,1-.251.735,13.836,13.836,0,0,1-6.062,1.565h-.017A9.821,9.821,0,0,1-13704.042-478.853Zm-2.136-4.287a.605.605,0,0,1,.6-.6.605.605,0,0,1,.605.6.605.605,0,0,1-.605.6A.605.605,0,0,1-13706.178-483.14Zm5.791.174a1.169,1.169,0,0,1-.794-1.449,1.169,1.169,0,0,1,1.45-.794,1.17,1.17,0,0,1,.794,1.449,1.171,1.171,0,0,1-1.122.841A1.168,1.168,0,0,1-13700.387-482.966Zm-16.131-2.676a.825.825,0,0,1,.825-.825.825.825,0,0,1,.825.825.826.826,0,0,1-.825.825A.825.825,0,0,1-13716.518-485.643Zm12.306.15a.651.651,0,0,1-.617-.687.652.652,0,0,1,.687-.617.654.654,0,0,1,.617.687.654.654,0,0,1-.652.618Zm-5.486-1.855a1.045,1.045,0,0,1,1.046-1.045,1.045,1.045,0,0,1,1.045,1.045,1.045,1.045,0,0,1-1.045,1.045A1.045,1.045,0,0,1-13709.7-487.348Zm-3.506.532a.756.756,0,0,1,.472-.96.755.755,0,0,1,.959.472.756.756,0,0,1-.472.96.753.753,0,0,1-.244.041A.756.756,0,0,1-13713.2-486.815Zm14.672-1.907a.907.907,0,0,1,.907-.908.907.907,0,0,1,.906.908.907.907,0,0,1-.906.907A.907.907,0,0,1-13698.532-488.722Zm-4.692-.219a.755.755,0,0,1,.482-.954.756.756,0,0,1,.954.483.756.756,0,0,1-.482.954.756.756,0,0,1-.236.038A.755.755,0,0,1-13703.225-488.942Zm-10.863-.255a1.14,1.14,0,0,1-.911-1.332,1.14,1.14,0,0,1,1.331-.911,1.14,1.14,0,0,1,.911,1.332,1.141,1.141,0,0,1-1.119.931A1.134,1.134,0,0,1-13714.088-489.2Zm5.289-2.848a1.031,1.031,0,0,1-.793-1.224,1.031,1.031,0,0,1,1.225-.792,1.031,1.031,0,0,1,.792,1.224,1.031,1.031,0,0,1-1.007.815A1.026,1.026,0,0,1-13708.8-492.045Zm5.022-.368a1.216,1.216,0,0,1-1.105-1.319,1.217,1.217,0,0,1,1.318-1.106,1.218,1.218,0,0,1,1.106,1.319,1.218,1.218,0,0,1-1.212,1.111C-13703.7-492.408-13703.741-492.41-13703.776-492.413Zm4.5-2.36a.686.686,0,0,1,.686-.688.688.688,0,0,1,.688.688.688.688,0,0,1-.688.687A.686.686,0,0,1-13699.274-494.772Zm-15.041-1.378a.791.791,0,0,1,.729-.848.792.792,0,0,1,.848.729.792.792,0,0,1-.729.848l-.061,0A.791.791,0,0,1-13714.315-496.15Z" transform="translate(13717.682 497)" fill="#f1f1f1"/>
</svg>
