<svg xmlns="http://www.w3.org/2000/svg" width="21.865" height="16" viewBox="0 0 21.865 16">
  <path id="雷达状态-icon" d="M17.388,15.728a.878.878,0,0,1,0-1.271,9.055,9.055,0,0,0,0-12.82.878.878,0,0,1,0-1.272.877.877,0,0,1,1.272,0,10.919,10.919,0,0,1,0,15.456,1.682,1.682,0,0,1-.636.181A.822.822,0,0,1,17.388,15.728Zm-14.183,0A10.919,10.919,0,0,1,3.2.272a.88.88,0,0,1,1.273,0,.878.878,0,0,1,0,1.272,9.165,9.165,0,0,0,0,12.911.877.877,0,0,1,0,1.271A.823.823,0,0,1,3.841,16,.823.823,0,0,1,3.2,15.728Zm11.91-2.637a.827.827,0,0,1-.636-.271.881.881,0,0,1,0-1.274,5.1,5.1,0,0,0,0-7.09.9.9,0,0,1,1.273-1.273,6.861,6.861,0,0,1,0,9.638A.829.829,0,0,1,15.115,13.091Zm-8.364,0Zm-.636-.271a6.86,6.86,0,0,1,0-9.638A.9.9,0,1,1,7.387,4.455a5.1,5.1,0,0,0,0,7.09.881.881,0,0,1,0,1.274.882.882,0,0,1-1.273,0ZM8.205,8A2.728,2.728,0,0,1,13.66,8,2.728,2.728,0,1,1,8.205,8Zm1.818,0a.909.909,0,1,0,1.818,0,.909.909,0,0,0-1.818,0Z" fill="#eaeaea"/>
</svg>
