<svg xmlns="http://www.w3.org/2000/svg" width="21.916" height="22" viewBox="0 0 21.916 22">
  <path id="风镐-icon" d="M-13852-401.928l3.084-5.043.924-.486.418.424,3.924-3.961,1.543,1.558-3.922,3.961.428.431-.527.96-4.951,3.086Zm7.914-11.686,8.318-8.4a3.306,3.306,0,0,1,4.707,0,3.38,3.38,0,0,1,0,4.754l-8.32,8.4Zm11.639-5.2-7.035,7.1.563.565,7.033-7.1a.4.4,0,0,0,0-.565.4.4,0,0,0-.283-.117A.394.394,0,0,0-13832.449-418.817Zm-.582-1.772-7.625,7.694.563.565,7.621-7.7a.405.405,0,0,0,0-.565.4.4,0,0,0-.281-.116A.388.388,0,0,0-13833.031-420.588Zm-1.758-.594-7.037,7.106.561.565,7.039-7.106a.4.4,0,0,0,0-.565.4.4,0,0,0-.281-.116A.391.391,0,0,0-13834.789-421.182Z" transform="translate(13852.002 422.999)" fill="#f1f1f1"/>
</svg>
