<svg xmlns="http://www.w3.org/2000/svg" width="17.666" height="21" viewBox="0 0 17.666 21">
  <path id="摄像头-icon" d="M-15821.015,150h-9.119a.88.88,0,0,1-.883-.875.88.88,0,0,1,.883-.875h1.521l1.1-2.159a8.763,8.763,0,0,1-6.154-8.34,8.792,8.792,0,0,1,8.834-8.75,8.791,8.791,0,0,1,8.832,8.75,8.755,8.755,0,0,1-5.652,8.166l1.189,2.334h.932a.88.88,0,0,1,.883.875.88.88,0,0,1-.883.875h-1.482Zm-1.432-1.75-.947-1.865a9.022,9.022,0,0,1-1.439.115q-.448,0-.885-.043l-.914,1.793Zm-4.395-10.4a2.282,2.282,0,0,0,2.3,2.262,2.282,2.282,0,0,0,2.3-2.262,2.283,2.283,0,0,0-2.3-2.261A2.282,2.282,0,0,0-15826.841,137.845Zm1.418-7.393v1.3a.876.876,0,0,0,.885.869.877.877,0,0,0,.885-.869v-1.306a.878.878,0,0,0-.885-.869A.877.877,0,0,0-15825.423,130.452Z" transform="translate(15833.667 -128.999)" fill="#f1f1f1"/>
</svg>
