<svg xmlns="http://www.w3.org/2000/svg" width="21.999" height="17.763" viewBox="0 0 21.999 17.763">
  <path id="机器人位置-icon" d="M.45,17.763a.451.451,0,0,1,0-.9h.856V15.509a.451.451,0,0,1,.451-.451h1.8a.451.451,0,0,1,.45.451v1.352h.934a3.161,3.161,0,0,1,3.124-2.7H8.62V12.074L6.151,9.6a2.4,2.4,0,0,1-.274-.33A2.591,2.591,0,0,1,6.964,4.64l3.28-3.28A1.918,1.918,0,0,1,12.22.9h3.873a.45.45,0,0,1,.451.451V1.8H17.6V1.353a.453.453,0,0,1,.226-.39l1.563-.9a.45.45,0,0,1,.45,0l1.563.9a.451.451,0,0,1-.451.781L19.61.971,18.5,1.613V2.9l1.112.642,1.337-.772a.451.451,0,0,1,.451.781l-1.563.9a.449.449,0,0,1-.45,0l-1.563-.9a.453.453,0,0,1-.226-.39V2.706H16.544v.451a.45.45,0,0,1-.451.451h-2.8a1.878,1.878,0,0,1-.341.462L10.132,6.891l2.384,2.383A2.363,2.363,0,0,1,13.2,11.14c.007.03.01,3.017.01,3.017h.721a3.161,3.161,0,0,1,3.124,2.7h.935V15.509a.45.45,0,0,1,.45-.451h1.8a.451.451,0,0,1,.45.451v1.352h.856a.451.451,0,1,1,0,.9Zm18.438-.9h.9v-.9h-.9Zm-13.027,0H16.139a2.259,2.259,0,0,0-2.21-1.8H8.069A2.258,2.258,0,0,0,5.86,16.862Zm-3.652,0h.9v-.9h-.9Zm7.313-2.7h2.784V12.806a2.369,2.369,0,0,1-2.784.106ZM7.6,9.777l2.207,2.207a1.465,1.465,0,1,0,2.072-2.072L9.9,7.935A2.6,2.6,0,0,1,7.6,9.777ZM5.727,7.192A1.69,1.69,0,1,0,7.418,5.5,1.693,1.693,0,0,0,5.727,7.192ZM10.882,2,8.169,4.711A2.6,2.6,0,0,1,9.728,6.02l2.588-2.588A1.014,1.014,0,1,0,10.882,2Zm2.632.708h2.128V1.8H13.284A1.923,1.923,0,0,1,13.514,2.706ZM6.967,7.192a.451.451,0,1,1,.451.451A.451.451,0,0,1,6.967,7.192Z" transform="translate(0 0)" fill="#f1f1f1"/>
</svg>
