<svg xmlns="http://www.w3.org/2000/svg" width="22" height="17.6" viewBox="0 0 22 17.6">
  <path id="楼梯口急停按钮-icon" d="M149.2,204.8h-7.37a.807.807,0,0,0-.8.81v5.6a.807.807,0,0,1-.8.814H134.7a.807.807,0,0,0-.8.81v5.6a.807.807,0,0,1-.8.81H128.8a.81.81,0,0,0-.8.814v1.533a.807.807,0,0,0,.8.81h7.407a.8.8,0,0,0,.8-.81v-5.6a.807.807,0,0,1,.8-.814h5.526a.807.807,0,0,0,.8-.81v-5.6a.8.8,0,0,1,.8-.81H149.2a.81.81,0,0,0,.8-.814V205.61A.807.807,0,0,0,149.2,204.8Z" transform="translate(-128 -204.8)" fill="#f1f1f1"/>
</svg>
