<svg xmlns="http://www.w3.org/2000/svg" width="21.999" height="21.95" viewBox="0 0 21.999 21.95">
  <path id="气压值-icon" d="M203.547,200.835l3.867-3.866a1.1,1.1,0,1,1,1.547,1.547l-3.822,3.822a2.194,2.194,0,1,1-1.591-1.5Zm9.362,7.619h-6.582a1.1,1.1,0,1,1,0-2.194h6.582a1.1,1.1,0,0,1,0,2.194Zm0,5.485h-2.194a1.1,1.1,0,1,1,0-2.194h2.194a1.1,1.1,0,0,1,0,2.194Zm-6.582,0h-10.18a3.85,3.85,0,1,1,0-7.679h3.6a1.1,1.1,0,0,1,0,2.194h-3.6a1.656,1.656,0,1,0,0,3.291h10.18a1.1,1.1,0,0,1,0,2.194Zm-8.7-17.88.34.34a1.094,1.094,0,0,1-1.547,1.547l-.336-.335a8.732,8.732,0,0,0-1.757,4.262h1.029a1.1,1.1,0,0,1,0,2.194h-2.194a1.1,1.1,0,0,1-1.1-1.1,10.969,10.969,0,1,1,21.939,0,1.1,1.1,0,0,1-1.1,1.1h-2.194a1.1,1.1,0,1,1,0-2.194h1.029a8.78,8.78,0,0,0-7.611-7.611v1.029a1.1,1.1,0,0,1-2.194,0v-1.029A8.733,8.733,0,0,0,197.629,196.059Z" transform="translate(-192.007 -192)" fill="#f1f1f1"/>
</svg>
