<svg xmlns="http://www.w3.org/2000/svg" width="18.779" height="22" viewBox="0 0 18.779 22">
  <path id="电气室急停按钮-icon" d="M104.87,0a1.1,1.1,0,0,1,1.1,1.1V20.9h1.65a.551.551,0,1,1,0,1.1H90.02a.551.551,0,1,1,0-1.1h1.65V1.1a1.1,1.1,0,0,1,1.1-1.1h12.1Zm-.551,1.1h-11a.551.551,0,0,0-.549.551v18.7a.551.551,0,0,0,.551.551h11a.551.551,0,0,0,.549-.551V1.65a.551.551,0,0,0-.551-.551Zm-2.2,1.65a1.1,1.1,0,0,1,1.1,1.1v5.5a1.1,1.1,0,0,1-1.1,1.1h-6.6a1.1,1.1,0,0,1-1.1-1.1v-5.5a1.1,1.1,0,0,1,1.1-1.1h6.6Zm-.551,1.1h-5.5a.551.551,0,0,0-.551.551V8.8a.552.552,0,0,0,.551.551h5.5a.551.551,0,0,0,.551-.551V4.4a.551.551,0,0,0-.551-.551ZM97.719,18.7l3.85-3.849h-2.2l.551-2.75-3.3,3.849h2.2Z" transform="translate(-89.431)" fill="#f1f1f1"/>
</svg>
