<svg xmlns="http://www.w3.org/2000/svg" width="22.002" height="21.395" viewBox="0 0 22.002 21.395">
  <path id="钳制器状态-icon" d="M53.6,57.692a1,1,0,0,0-.786-.891H52.76a3.43,3.43,0,0,1-2.462-4.3,1.011,1.011,0,0,0-.314-1.152,9.834,9.834,0,0,0-3.562-2.148,1.03,1.03,0,0,0-1.152.314,3.04,3.04,0,0,1-2.462,1.1,3.5,3.5,0,0,1-2.462-1.152,1.031,1.031,0,0,0-1.152-.262,13.554,13.554,0,0,0-3.51,2.1.994.994,0,0,0-.367,1.153A3.625,3.625,0,0,1,35,55.23,3.547,3.547,0,0,1,32.854,56.8c-.052,0-.052,0-.1.052a1.454,1.454,0,0,0-.681.786v.052a10.624,10.624,0,0,0-.21,2.148,9.177,9.177,0,0,0,.21,2.1,1,1,0,0,0,.786.891h.052a3.43,3.43,0,0,1,2.462,4.3,1.011,1.011,0,0,0,.314,1.153A9.626,9.626,0,0,0,39.3,70.422c.052,0,.1.052.21.052h.157a1.2,1.2,0,0,0,.838-.367,3.2,3.2,0,0,1,2.462-1.1,3.5,3.5,0,0,1,2.462,1.152,1.1,1.1,0,0,0,.733.367.892.892,0,0,0,.367-.052,13.553,13.553,0,0,0,3.51-2.1.972.972,0,0,0,.367-1.152,3.625,3.625,0,0,1,.314-2.776,3.547,3.547,0,0,1,2.148-1.572c.052,0,.052,0,.1-.052a1.454,1.454,0,0,0,.681-.786v-.052a10.624,10.624,0,0,0,.21-2.148,14.162,14.162,0,0,0-.262-2.148ZM42.807,63.454a3.667,3.667,0,1,1,3.667-3.667A3.644,3.644,0,0,1,42.807,63.454Z" transform="translate(-31.858 -49.131)" fill="#f1f1f1"/>
</svg>
