<svg xmlns="http://www.w3.org/2000/svg" width="16.502" height="22.002" viewBox="0 0 16.502 22.002">
  <path id="雷达仓盖-icon" d="M-13834.251-347a2.7,2.7,0,0,1-2.752-2.75v-16.5a2.7,2.7,0,0,1,2.752-2.75h11a2.7,2.7,0,0,1,2.75,2.75v16.5a2.7,2.7,0,0,1-2.75,2.75Zm-.916-19.251v16.5a.865.865,0,0,0,.916.917h11a.867.867,0,0,0,.918-.917v-16.5a.867.867,0,0,0-.918-.917h-11A.865.865,0,0,0-13835.167-366.251Zm10.268,7.976v-1.65a.865.865,0,0,1,.916-.917.866.866,0,0,1,.916.917v1.65a.866.866,0,0,1-.916.917A.865.865,0,0,1-13824.9-358.276Z" transform="translate(13837.003 369.002)" fill="#f1f1f1"/>
</svg>
