<svg id="组_80" data-name="组 80" xmlns="http://www.w3.org/2000/svg" width="24" height="16.972" viewBox="0 0 24 16.972">
  <path id="路径_62" data-name="路径 62" d="M24.961,187.738c-.931-.308-1.1-1-.235-1.093,0,0,4.285-.056,5.128.008,0,0,.729-.015.81.242s-.018.7-2.609.989A8.159,8.159,0,0,1,24.961,187.738Zm2.448,1.151H24.622v-.454h2.786Zm-.066,1.913v-.777H24.817v.777H22.079v.4H29.16v-.4Zm5.073,2.17H20.1v-1.1H32.415ZM30.78,179.927l9.658-2.526a11.928,11.928,0,0,1,.146,2.577L31.33,182.91A8.242,8.242,0,0,1,30.78,179.927Zm1.133,3.273.308.356s.616-.374.843-.469l-.1-.242S32.012,183.152,31.913,183.2ZM44.1,178.665H41.473v-.6H44.1Zm-14.122.883c-.025-.293-.7-3.5-.7-3.5l-4.2-.048-.608,3.427-.341,6.635,6.562.025S30,179.838,29.978,179.548Zm-2.763-.967a1.151,1.151,0,1,1,1.151-1.151A1.15,1.15,0,0,1,27.214,178.582Z" transform="translate(-20.1 -176)" fill="#E7ECEE"/>
</svg>
