<svg xmlns="http://www.w3.org/2000/svg" width="23.129" height="20" viewBox="0 0 23.129 20">
  <path id="联合_1" data-name="联合 1" d="M3.073,20a2.95,2.95,0,0,1-2.18-.895A2.953,2.953,0,0,1,0,16.927V6.145a2.956,2.956,0,0,1,.893-2.18,2.955,2.955,0,0,1,2.18-.893H5.809l.671-1.62A2.393,2.393,0,0,1,7.317.447,2.081,2.081,0,0,1,8.546,0h6.146a2.215,2.215,0,0,1,1.229.447,2.393,2.393,0,0,1,.839,1.006l.614,1.62h2.682a3.051,3.051,0,0,1,3.073,3.073V16.927A3.054,3.054,0,0,1,20.056,20ZM6.48,11.34a5.084,5.084,0,1,0,5.084-5.083A5.1,5.1,0,0,0,6.48,11.34Zm1.676.056a3.408,3.408,0,1,1,3.408,3.409A3.386,3.386,0,0,1,8.156,11.4Z" fill="#E7ECEE"/>
</svg>
