<svg xmlns="http://www.w3.org/2000/svg" width="17.188" height="20" viewBox="0 0 17.188 20">
  <path id="路径_67" data-name="路径 67" d="M144.972,120.8h11.839c1.105,0,1.535,2.65,1.54,5.6s-1.108,5.6-1.99,5.6h-2.7a.145.145,0,0,1-.135-.2,3.271,3.271,0,0,0,.248-1.575,7.172,7.172,0,0,0-.413-1.47s.208.6-.645,1.718a4.621,4.621,0,0,1-1.7,1.493.385.385,0,0,1-.15.033H142.24a1.076,1.076,0,0,1-1.075-1.12,1.088,1.088,0,0,1,.163-.525l1.218-2.03a9.5,9.5,0,0,0,1.355-4.893v-1.555A1.073,1.073,0,0,1,144.972,120.8Zm5.343-3.953v-3.768a1.078,1.078,0,1,1,2.155,0v3.768h4.021a1.078,1.078,0,0,1,1.078,1.078V119a1.078,1.078,0,0,1-1.078,1.078H145.722A1.078,1.078,0,0,1,144.645,119v-1.078a1.078,1.078,0,0,1,1.078-1.078Z" transform="translate(-141.164 -112)" fill="#E7ECEE"/>
</svg>
